<svg xmlns="http://www.w3.org/2000/svg" viewBox="0 0 16 16">
  <path fill="#abffcf" d="M9.717 3.55A1.5 1.5 0 0 0 7 4.5v7a1.5 1.5 0 0 0 2.717.95l2.523-3.2H13.5A1.5 1.5 0 0 0 15 7.75v-1.5a1.5 1.5 0 0 0-1.5-1.5h-1.26l-2.523-3.2Z"/>
  <path fill="#abffcf" d="M4.825 5.25H3.5A1.5 1.5 0 0 0 2 6.75v2.5a1.5 1.5 0 0 0 1.5 1.5h1.325L7.21 12.407A.5.5 0 0 0 8 12V4a.5.5 0 0 0-.79-.407L4.825 5.25Z"/>
  <path fill="#abffcf" d="M11.536 6.025a.5.5 0 0 1 .707 0 2.8 2.8 0 0 1 0 3.95.5.5 0 1 1-.707-.708 1.8 1.8 0 0 0 0-2.534.5.5 0 0 1 0-.708Z"/>
  <path fill="#abffcf" d="M13.304 4.257a.5.5 0 0 1 .707 0 5.3 5.3 0 0 1 0 7.486.5.5 0 0 1-.707-.708 4.3 4.3 0 0 0 0-6.07.5.5 0 0 1 0-.708Z"/>
</svg>
