<svg xmlns="http://www.w3.org/2000/svg" viewBox="0 0 16 16">
  <path fill="#ffc785" d="M9.717 3.55A1.5 1.5 0 0 0 7 4.5v.79l2.717-1.74Z"/>
  <path fill="#ffc785" d="M10.5 8a.5.5 0 0 1-.223.416L8 9.916V12a.5.5 0 0 1-.79.407L4.825 10.75H3.5A1.5 1.5 0 0 1 2 9.25v-2.5a1.5 1.5 0 0 1 1.5-1.5h1.325L7.21 3.593A.5.5 0 0 1 8 4v4.584l1.723-1.103A.5.5 0 0 1 10.5 8Z"/>
  <path fill="#ffc785" d="M11.854 5.146a.5.5 0 0 0-.708.708L12.293 7l-1.147 1.146a.5.5 0 0 0 .708.708L13 7.707l1.146 1.147a.5.5 0 0 0 .708-.708L13.707 7l1.147-1.146a.5.5 0 0 0-.708-.708L13 6.293l-1.146-1.147Z"/>
</svg>
